#!OML:ASF F:\VICON\USERDATA\Patient Classification 1\PLAYGROUND\JustinFriday\JustinFriday.ASF
:FULLY-SPECIFIED
:DEGREES
1587
root 13.4096 12.7347 -13.9724 -409.373 -152.348 28.9415
lowerback 9.57285 6.69168 5.65327
upperback -0.453509 9.76498 5.7732
thorax -5.89978 4.65084 1.52442
lowerneck 12.9934 -3.38827 -14.9263
upperneck 10.6824 -8.44289 17.1889
head 2.29111 -5.1071 7.96681
rclavicle -1.11319e-014 -8.90555e-014
rhumerus -8.08387 -44.2888 -65.0079
rradius 129.889
rwrist 174.771
rhand -1.1046 23.7581
rfingers 7.12502
rthumb 24.5319 -4.69041
lclavicle -1.11319e-014 -8.90555e-014
lhumerus 36.038 55.9853 8.41098
lradius 61.0475
lwrist 67.4158
lhand 22.9022 -5.13283
lfingers 7.12502
lthumb 47.2285 17.4321
rfemur 7.97244 -24.2466 4.53651
rtibia 88.8465
rfoot -26.7984 -9.41343
rtoes -28.536
lfemur -13.7935 -13.6491 7.55769
ltibia 105.157
lfoot -39.0808 -21.2868
ltoes -22.0358
1588
root 13.3895 12.8484 -14.0168 -409.07 -151.572 29.2972
lowerback 9.41673 6.81244 5.63881
upperback -0.350221 9.90012 5.85053
thorax -5.71839 4.72415 1.6197
lowerneck 12.7566 -3.62264 -15.2215
upperneck 10.3003 -8.67917 17.2997
head 2.27505 -5.20098 8.04059
rclavicle -6.91771e-014 -9.54166e-014
rhumerus -7.97946 -44.3465 -65.3983
rradius 127.822
rwrist 175.318
rhand -4.80622 22.0856
rfingers 7.12502
rthumb 20.9796 -6.79969
lclavicle -6.91771e-014 -9.54166e-014
lhumerus 33.8258 56.4311 8.29192
lradius 61.6
lwrist 68.2718
lhand 23.3825 -5.8002
lfingers 7.12502
lthumb 47.6721 16.5642
rfemur 8.12238 -24.3288 5.30236
rtibia 87.7671
rfoot -26.2157 -10.4611
rtoes -29.0907
lfemur -13.7989 -13.6297 7.55249
ltibia 104.165
lfoot -39.9583 -19.1141
ltoes -24.3624
1589
root 13.3657 12.9655 -14.0533 -408.416 -150.195 29.1726
lowerback 9.13588 7.0035 4.84224
upperback -0.351215 10.0578 5.67872
thorax -5.66499 4.83808 1.87347
lowerneck 12.6292 -3.97099 -14.7488
upperneck 9.84775 -8.9367 16.8481
head 2.17699 -5.28385 7.79625
rclavicle 5.80451e-014 6.67916e-014
rhumerus -8.37896 -44.6558 -65.2614
rradius 126.306
rwrist 176.456
rhand -10.5867 20.2435
rfingers 7.12502
rthumb 15.4186 -9.16148
lclavicle 5.80451e-014 6.67916e-014
lhumerus 31.6436 56.6875 7.42647
lradius 61.6947
lwrist 69.673
lhand 23.2389 -6.38513
lfingers 7.12502
lthumb 47.5396 16.0397
rfemur 8.11745 -24.5425 5.07005
rtibia 86.7846
rfoot -25.9796 -10.4274
rtoes -28.3243
lfemur -14.175 -13.4689 6.50036
ltibia 103.187
lfoot -40.2413 -16.3874
ltoes -26.1312
1590
root 13.3382 13.0862 -14.09 -407.841 -148.958 28.9269
lowerback 9.13687 7.34851 4.43189
upperback -0.407576 10.4813 5.20792
thorax -5.71044 5.06352 1.54325
lowerneck 14.0668 -4.65719 -14.3256
upperneck 8.48933 -9.85422 17.232
head 1.70146 -5.79473 7.90593
rclavicle 9.54166e-015 -6.36111e-015
rhumerus -9.59573 -45.6453 -64.7384
rradius 125.043
rwrist 177.322
rhand -16.3839 15.5207
rfingers 7.12502
rthumb 9.82976 -14.2299
lclavicle 9.54166e-015 -6.36111e-015
lhumerus 31.0129 56.8397 7.89202
lradius 61.8321
lwrist 70.76
lhand 23.1576 -6.83616
lfingers 7.12502
lthumb 47.4645 15.6227
rfemur 8.24099 -24.5946 4.80661
rtibia 85.7536
rfoot -25.6789 -10.7888
rtoes -28.1684
lfemur -14.1373 -13.1097 5.5239
ltibia 102.078
lfoot -40.4467 -13.4022
ltoes -27.5594
1591
root 13.3017 13.2094 -14.1353 -407.66 -148.243 29.0619
lowerback 8.96848 7.33556 4.26695
upperback -0.259097 10.423 5.32345
thorax -5.50945 5.0463 1.78868
lowerneck 13.8224 -4.5487 -13.5034
upperneck 7.60874 -9.28763 16.2304
head 1.32388 -5.43279 7.43913
rclavicle -3.89618e-014 -2.22639e-014
rhumerus -10.271 -45.4329 -64.55
rradius 123.911
rwrist 177.872
rhand -21.4554 9.94698
rfingers 7.12502
rthumb 4.9346 -19.9756
lclavicle -3.89618e-014 -2.22639e-014
lhumerus 27.6525 57.0927 6.12914
lradius 62.0994
lwrist 71.8479
lhand 23.5708 -7.1683
lfingers 7.12502
lthumb 47.8458 15.1161
rfemur 8.66177 -24.4953 5.25487
rtibia 84.5614
rfoot -25.2662 -11.2603
rtoes -27.8652
lfemur -13.7293 -13.0087 5.34841
ltibia 100.944
lfoot -40.8411 -10.2405
ltoes -29.2954
1592
root 13.2699 13.3271 -14.18 -407.82 -147.936 29.8653
lowerback 9.07539 7.56641 4.64787
upperback -0.935955 10.8613 5.83838
thorax -6.33271 5.22993 1.99745
lowerneck 17.0185 -4.35945 -14.18
upperneck 6.09703 -9.3513 16.3775
head 0.438207 -5.62381 7.76959
rclavicle -1.11319e-014 -2.8625e-014
rhumerus -13.8917 -45.3171 -61.2657
rradius 122.954
rwrist 177.91
rhand -25.9914 3.76698
rfingers 7.12502
rthumb 0.554088 -26.212
lclavicle -1.11319e-014 -2.8625e-014
lhumerus 24.782 55.6137 5.57187
lradius 62.4752
lwrist 72.9499
lhand 24.2543 -7.69924
lfingers 7.12502
lthumb 48.4756 14.2886
rfemur 9.02179 -24.541 6.58637
rtibia 83.318
rfoot -24.8478 -11.776
rtoes -27.3024
lfemur -13.6204 -12.6549 6.18395
ltibia 99.883
lfoot -38.9934 -16.4112
ltoes -20.6215
1593
root 13.2458 13.4469 -14.2094 -407.67 -147.366 30.4741
lowerback 9.38751 7.36113 5.36957
upperback -0.683972 10.6453 5.76515
thorax -6.09022 5.09347 1.55341
lowerneck 15.3826 -4.51306 -14.5192
upperneck 6.08745 -9.3252 16.2044
head 0.695087 -5.50941 7.68797
rclavicle 5.725e-014 3.49861e-014
rhumerus -13.094 -45.2274 -62.2959
rradius 121.54
rwrist 178.514
rhand -30.0249 -2.4616
rfingers 7.12502
rthumb -3.34154 -32.4152
lclavicle 5.725e-014 3.49861e-014
lhumerus 21.1906 56.4742 3.47797
lradius 62.7257
lwrist 73.4479
lhand 25.0034 -8.45424
lfingers 7.12502
lthumb 49.1643 13.1965
rfemur 8.96802 -24.5908 7.78042
rtibia 82.0834
rfoot -24.3168 -12.3905
rtoes -26.7312
lfemur -13.9249 -12.0424 6.7038
ltibia 98.8882
lfoot -35.8683 -22.325
ltoes -6.70989
1594
root 13.2217 13.5718 -14.235 -407.024 -145.994 30.2161
lowerback 9.42301 7.1532 4.60415
upperback -0.330528 10.257 5.84148
thorax -5.87944 4.93614 2.10378
lowerneck 14.1355 -4.44726 -15.4605
upperneck 5.77889 -9.07173 15.8757
head 0.795526 -5.3001 7.68111
rclavicle -7.71285e-014 -8.5875e-014
rhumerus -11.8557 -44.4252 -63.0638
rradius 120.049
rwrist 179.138
rhand -33.3541 -8.16272
rfingers 7.12502
rthumb -6.5561 -38.0412
lclavicle -7.71285e-014 -8.5875e-014
lhumerus 16.797 57.2401 1.18944
lradius 62.7877
lwrist 73.6309
lhand 25.6814 -8.89352
lfingers 7.12502
lthumb 49.786 12.4408
rfemur 8.90433 -24.5629 7.72126
rtibia 80.9065
rfoot -23.6518 -13.0836
rtoes -26.5671
lfemur -14.1101 -12.4826 5.90559
ltibia 98.2118
lfoot -37.7109 -18.3248
ltoes -16.7447
1595
root 13.1884 13.7145 -14.2761 -406.615 -144.654 30.1125
lowerback 9.63948 7.55733 4.31386
upperback -0.662003 10.8093 5.17934
thorax -6.28286 5.21025 1.44288
lowerneck 15.4136 -5.01181 -13.8175
upperneck 4.41267 -9.57361 15.6016
head 0.193802 -5.56238 7.39849
rclavicle 8.34896e-014 1.59028e-014
rhumerus -14.3857 -45.6372 -61.4507
rradius 119.063
rwrist 179.457
rhand -35.5472 -16.0224
rfingers 7.12502
rthumb -8.67286 -45.8242
lclavicle 8.34896e-014 1.59028e-014
lhumerus 17.7662 56.9425 3.16991
lradius 62.6355
lwrist 73.6694
lhand 26.3142 -9.11444
lfingers 7.12502
lthumb 50.3649 11.9146
rfemur 9.22439 -24.5739 7.72768
rtibia 79.6061
rfoot -23.114 -13.855
rtoes -26.5818
lfemur -14.4457 -12.0971 4.93558
ltibia 97.0324
lfoot -36.0996 -20.2416
ltoes -10.57
1596
root 13.1574 13.8263 -14.3091 -406.61 -143.762 30.6367
lowerback 9.86614 7.6395 4.77992
upperback -0.845615 10.9903 4.8385
thorax -6.45125 5.27159 0.781392
lowerneck 15.8553 -5.28063 -13.1558
upperneck 3.65273 -9.77508 15.5704
head -0.0975406 -5.66514 7.31644
rclavicle 3.65764e-014 7.63333e-014
rhumerus -15.9858 -46.1091 -60.5542
rradius 117.863
rwrist 179.754
rhand -36.7302 -25.5118
rfingers 7.12502
rthumb -9.81436 -55.2631
lclavicle 3.65764e-014 7.63333e-014
lhumerus 16.5058 56.6184 3.07684
lradius 62.6675
lwrist 73.898
lhand 26.9955 -9.82115
lfingers 7.12502
lthumb 50.9867 10.8677
rfemur 9.46288 -24.6133 8.49886
rtibia 78.3838
rfoot -22.6937 -14.5477
rtoes -25.9327
lfemur -14.1174 -12.2135 5.01685
ltibia 95.9763
lfoot -35.6753 -21.1396
ltoes -7.30009
